<svg xmlns="http://www.w3.org/2000/svg" version="1.1" xmlns:xlink="http://www.w3.org/1999/xlink" xmlns:svgjs="http://svgjs.dev/svgjs" width="1500" height="1500" viewBox="0 0 1500 1500"><g transform="matrix(1,0,0,1,-0.21332335329316265,-0.21332335329350371)"><svg viewBox="0 0 334 334" data-background-color="#050816" preserveAspectRatio="xMidYMid meet" height="1500" width="1500" xmlns="http://www.w3.org/2000/svg" xmlns:xlink="http://www.w3.org/1999/xlink"><g id="tight-bounds" transform="matrix(1,0,0,1,0.04749999999998522,0.04750000000001364)"><svg viewBox="0 0 333.90454557049503 333.90454557049503" height="333.90454557049503" width="333.90454557049503"><g><svg></svg></g><g><svg viewBox="0 0 333.90454557049503 333.90454557049503" height="333.90454557049503" width="333.90454557049503"><g><path d="M0 166.952c0-92.205 74.747-166.952 166.952-166.952 92.205 0 166.952 74.747 166.953 166.952 0 92.205-74.747 166.952-166.953 166.953-92.205 0-166.952-74.747-166.952-166.953zM166.952 323.559c86.492 0 156.607-70.115 156.607-156.607 0-86.492-70.115-156.607-156.607-156.607-86.492 0-156.607 70.115-156.607 156.607 0 86.492 70.115 156.607 156.607 156.607z" data-fill-palette-color="tertiary" fill="#db3e25" stroke="transparent"></path><ellipse rx="160.27418187383762" ry="160.27418187383762" cx="166.95227278524752" cy="166.95227278524752" fill="#db3e25" stroke="transparent" stroke-width="0" fill-opacity="1" data-fill-palette-color="tertiary"></ellipse></g><g transform="matrix(1,0,0,1,112.05259656812797,71.17305217166896)"><svg viewBox="0 0 109.7993524342391 191.55844122715712" height="191.55844122715712" width="109.7993524342391"><g><svg viewBox="0 0 109.7993524342391 191.55844122715712" height="191.55844122715712" width="109.7993524342391"><g><svg viewBox="0 0 183.34879374599325 319.8744651239836" height="191.55844122715712" width="109.7993524342391"><g transform="matrix(1,0,0,1,0,128.3160238968265)"><svg viewBox="0 0 183.34879374599325 191.55844122715712" height="191.55844122715712" width="183.34879374599325"><g id="textblocktransform"><svg viewBox="0 0 183.34879374599325 191.55844122715712" height="191.55844122715712" width="183.34879374599325" id="textblock"><g><svg viewBox="0 0 183.34879374599325 191.55844122715712" height="191.55844122715712" width="183.34879374599325"><g transform="matrix(1,0,0,1,0,0)"><svg width="183.34879374599325" viewBox="1 -35 33.5 35" height="191.55844122715712" data-palette-color="#97d5ee"><path d="M34.5 0L24.4 0 24.4-2.75 27.45-2.75 25.15-9.25 9.75-9.25 7.5-2.75 11.1-2.75 11.1 0 1 0 1-2.75 4.3-2.75 15.95-35 19-35 31.05-2.75 34.5-2.75 34.5 0ZM24.25-11.75L17.3-31.2 10.6-11.75 24.25-11.75Z" opacity="1" transform="matrix(1,0,0,1,0,0)" fill="#97d5ee" class="wordmark-text-0" data-fill-palette-color="quaternary" id="text-0"></path></svg></g></svg></g></svg></g></svg></g><g transform="matrix(1,0,0,1,35.01961960548471,0)"><svg viewBox="0 0 113.30955453502382 83.09367332568414" height="83.09367332568414" width="113.30955453502382"><g><svg xmlns="http://www.w3.org/2000/svg" viewBox="2 10 60 44" x="0" y="0" height="83.09367332568414" width="113.30955453502382" class="icon-icon-0" data-fill-palette-color="quaternary" id="icon-0"><g fill="#97d5ee" data-fill-palette-color="quaternary"><path d="M61 48H60V12A2 2 0 0 0 58 10H6A2 2 0 0 0 4 12V48H3A1 1 0 0 0 2 49V50A4 4 0 0 0 6 54H58A4 4 0 0 0 62 50V49A1 1 0 0 0 61 48M6 12H58V48H6ZM58 52H6A2 2 0 0 1 4 50H60A2 2 0 0 1 58 52" fill="#97d5ee" data-fill-palette-color="quaternary"></path><path d="M55 14H9A1 1 0 0 0 8 15V45A1 1 0 0 0 9 46H55A1 1 0 0 0 56 45V15A1 1 0 0 0 55 14M54 44H10V16H54Z" fill="#97d5ee" data-fill-palette-color="quaternary"></path><path d="M19 36H22V41A1 1 0 0 0 23 42H27A1 1 0 0 0 28 41V36H36V41A1 1 0 0 0 37 42H41A1 1 0 0 0 42 41V36H45A1 1 0 0 0 46 35V19A1 1 0 0 0 45 18H19A1 1 0 0 0 18 19V35A1 1 0 0 0 19 36M26 40H24V36H26ZM40 40H38V36H40ZM20 20H44V34H20Z" fill="#97d5ee" data-fill-palette-color="quaternary"></path><path d="M23 24H33A1 1 0 0 0 33 22H23A1 1 0 0 0 23 24" fill="#97d5ee" data-fill-palette-color="quaternary"></path><path d="M37 24H41A1 1 0 0 0 41 22H37A1 1 0 0 0 37 24" fill="#97d5ee" data-fill-palette-color="quaternary"></path><path d="M23 28H27A1 1 0 0 0 27 26H23A1 1 0 0 0 23 28" fill="#97d5ee" data-fill-palette-color="quaternary"></path><path d="M30 27A1 1 0 0 0 31 28H35A1 1 0 0 0 35 26H31A1 1 0 0 0 30 27" fill="#97d5ee" data-fill-palette-color="quaternary"></path><path d="M41 26H39A1 1 0 0 0 39 28H41A1 1 0 0 0 41 26" fill="#97d5ee" data-fill-palette-color="quaternary"></path><path d="M29 32A1 1 0 0 0 29 30H23A1 1 0 0 0 23 32Z" fill="#97d5ee" data-fill-palette-color="quaternary"></path><path d="M41 30H33A1 1 0 0 0 33 32H41A1 1 0 0 0 41 30" fill="#97d5ee" data-fill-palette-color="quaternary"></path></g></svg></g></svg></g><g></g></svg></g></svg></g></svg></g></svg></g><defs></defs></svg><rect width="333.90454557049503" height="333.90454557049503" fill="none" stroke="none" visibility="hidden"></rect></g></svg></g></svg> 